<svg xmlns="http://www.w3.org/2000/svg" viewBox="0 0 32 32">
  <!-- Trophy body -->
  <path d="M9 3 L23 3 L21 18 Q16 22 11 18 Z" fill="#FFD700"/>
  <!-- Trophy handles -->
  <path d="M9 6 Q5 6 5 10 Q5 14 9 14" stroke="#FFD700" stroke-width="2.5" stroke-linecap="round" fill="none"/>
  <path d="M23 6 Q27 6 27 10 Q27 14 23 14" stroke="#FFD700" stroke-width="2.5" stroke-linecap="round" fill="none"/>
  <!-- Trophy stem -->
  <rect x="14" y="18" width="4" height="5" fill="#FFC200"/>
  <!-- Trophy base -->
  <rect x="10" y="23" width="12" height="2.5" rx="1.2" fill="#FFD700"/>
  <rect x="9" y="25.5" width="14" height="2.5" rx="1.2" fill="#FFC200"/>
  <!-- Star inside trophy -->
  <polygon points="16,7 17.2,10.4 20.8,10.4 17.9,12.4 19,15.8 16,13.8 13,15.8 14.1,12.4 11.2,10.4 14.8,10.4" fill="#FF8C00"/>
</svg>
